<?xml version="1.0" standalone="no"?>
<!DOCTYPE svg PUBLIC "-//W3C//DTD SVG 20010904//EN"
 "http://www.w3.org/TR/2001/REC-SVG-20010904/DTD/svg10.dtd">
<svg version="1.0" xmlns="http://www.w3.org/2000/svg"
 width="90.000000pt" height="90.000000pt" viewBox="0 0 90.000000 90.000000"
 preserveAspectRatio="xMidYMid meet">
<metadata>
Created by potrace 1.16, written by Peter Selinger 2001-2019
</metadata>
<g transform="translate(0.000000,90.000000) scale(0.100000,-0.100000)"
fill="#000000" stroke="none">
<path d="M0 450 l0 -450 450 0 450 0 0 450 0 450 -450 0 -450 0 0 -450z m498
153 c2 -41 7 -52 22 -56 26 -7 26 -27 0 -34 -18 -5 -20 -14 -20 -79 0 -67 2
-74 20 -74 13 0 20 -7 20 -20 0 -16 -7 -20 -35 -20 -45 0 -55 20 -55 114 0 44
-4 76 -10 76 -5 0 -10 9 -10 20 0 11 5 20 10 20 6 0 10 22 10 48 0 53 6 64 30
60 11 -2 16 -18 18 -55z m-208 -124 l0 -159 -30 0 -30 0 0 126 c0 100 -3 129
-15 141 -9 8 -14 20 -12 27 4 12 68 36 80 29 4 -2 7 -76 7 -164z m110 0 l0
-159 -30 0 -30 0 0 130 c0 80 -4 130 -10 130 -5 0 -10 11 -10 25 0 19 7 26 33
33 17 5 35 7 40 5 4 -2 7 -76 7 -164z m210 9 l14 -63 9 63 c7 51 12 62 28 62
11 0 19 -7 19 -17 0 -29 -42 -238 -52 -256 -13 -26 -63 -19 -63 8 0 11 5 20
12 20 24 0 24 15 -1 116 -32 127 -32 129 -2 129 21 0 25 -7 36 -62z"/>
</g>
</svg>
