<?xml version="1.0" encoding="UTF-8" standalone="no"?>
<svg
   xmlns:dc="http://purl.org/dc/elements/1.1/"
   xmlns:cc="http://creativecommons.org/ns#"
   xmlns:rdf="http://www.w3.org/1999/02/22-rdf-syntax-ns#"
   xmlns:svg="http://www.w3.org/2000/svg"
   xmlns="http://www.w3.org/2000/svg"
   xmlns:sodipodi="http://sodipodi.sourceforge.net/DTD/sodipodi-0.dtd"
   xmlns:inkscape="http://www.inkscape.org/namespaces/inkscape"
   id="svg2"
   viewBox="0 0 545 490"
   version="1.1"
   inkscape:version="0.91 r13725"
   sodipodi:docname="OnsenMark-red.svg"
   width="545"
   height="490">
  <defs
     id="defs18529" />
  <sodipodi:namedview
     pagecolor="#ffffff"
     bordercolor="#666666"
     borderopacity="1"
     objecttolerance="10"
     gridtolerance="10"
     guidetolerance="10"
     inkscape:pageopacity="0"
     inkscape:pageshadow="2"
     inkscape:window-width="1916"
     inkscape:window-height="1035"
     id="namedview18527"
     showgrid="false"
     inkscape:zoom="1.2405942"
     inkscape:cx="222.34469"
     inkscape:cy="265.819"
     inkscape:window-x="4"
     inkscape:window-y="1"
     inkscape:window-maximized="1"
     inkscape:current-layer="g3018"
     fit-margin-top="0"
     fit-margin-left="0"
     fit-margin-right="0"
     fit-margin-bottom="0" />
  <title
     id="title3083">Onsen Mark 02</title>
  <g
     id="layer1"
     transform="translate(654.56796,-525.53901)"
     style="fill:#ff0000">
    <g
       id="g3018"
       style="fill:#ff0000">
      <g
         id="g19071"
         transform="translate(10,-4)">
        <path
           sodipodi:nodetypes="cccccsccsccccsscsscscccc"
           inkscape:connector-curvature="0"
           d="m -199.96672,816.38471 c -5.0719,0.74907 -6.29077,11.92741 -1.6875,15.47624 5.3511,4.442 9.3329,9.02802 11.75,13.18542 10.29127,21.39672 26.60917,42.09673 4.60091,65.07981 -30.8826,23.08839 -37.25747,21.79717 -55.93147,28.623 -37.347,13.65004 -89.406,22.19618 -146.91,22.19618 -57.5,0 -111.17213,0.32058 -148.52213,-13.32946 -52.79136,-30.82871 -59.71911,-29.98577 -58.65155,-92.18416 0,-2.94341 0.80876,-6.23008 3.2188,-10.38537 2.41004,-4.15528 6.3724,-8.74586 11.719,-13.18542 4.81715,-3.92487 2.9442,-15.77758 -2.4375,-15.42541 -0.41245,0.0195 -0.82183,0.1221 -1.2188,0.30545 -21.098,9.84761 -38.218,21.27738 -50.437,34.41426 -12.219,13.1364 -20.094,28.74345 -20.094,46.83598 0,19.34041 8.9118,35.75337 22.688,49.53374 13.776,13.78053 33.087,25.66123 56.781,35.68653 47.389,20.0524 112.34,32.3275 184.09,32.3275 71.754,0 136.7,-12.2742 184.09,-32.3275 23.694,-10.02644 43.006,-21.90616 56.781,-35.68653 13.776,-13.78053 22.688,-30.19333 22.688,-49.53374 0,-18.09742 -7.9002,-33.70072 -20.125,-46.83598 -12.225,-13.13492 -29.332,-24.56649 -50.438,-34.41426 -0.63511,-0.33148 -1.30451,-0.45264 -1.9688,-0.35636 z"
           style="color:#000000;text-indent:0;text-transform:none;block-progression:tb;fill:#ff0000"
           id="path3601" />
        <g
           style="fill:#ff0000"
           transform="translate(0.78442,0)"
           id="g3013">
          <path
             inkscape:connector-curvature="0"
             d="m -487.56,581.72 a 7.9059,7.9059 0 0 0 -0.75,0.0625 c -6.2183,1.029 -9.8246,5.9004 -11.625,9.0312 -1.8004,3.1309 -3.0704,5.3842 -3.125,5.4375 a 7.9059,7.9059 0 0 0 -1.2812,1.6562 c -13.503,22.911 -29.995,48.465 -30.688,78.875 a 7.9059,7.9059 0 0 0 0.0625,1.0625 c 2.8019,24.76 17.512,46.36 32.781,62.281 a 7.9059,7.9059 0 0 0 0.0313,0 c 16.116,16.785 26.804,34.858 21.219,54.938 a 7.9059,7.9059 0 0 0 -0.125,0.5625 c -3.8495,18.928 -10.959,37.502 -18.188,56.219 a 7.9059,7.9059 0 0 0 -0.3125,4.6562 c 1.0518,4.4319 4.0373,9.3865 9.2188,10.656 5.1815,1.2698 8.905,-1.0174 11.531,-3 4.9022,-3.7008 8.1035,-8.2427 10.062,-13.25 13.408,-22.747 29.605,-48.086 30.281,-78.219 a 7.9059,7.9059 0 0 0 -0.0625,-1.0938 c -2.85,-24.59 -17.29,-46.24 -32.47,-62.22 -0.005,-0.005 0.005,-0.0258 0,-0.0313 l 0.0313,0 c -7.688,-8.1448 -14.54,-16.636 -18.656,-25.219 -4.1166,-8.5826 -5.6812,-16.95 -3.2812,-26.469 a 7.9059,7.9059 0 0 0 0.16,-0.66 c 3.2797,-20.042 11.079,-39.706 18.469,-59.812 a 7.9059,7.9059 0 0 0 0.5,-2.7188 c -0.008,-7.6695 -6.4772,-13.235 -13.781,-12.75 z"
             style="color:#000000;text-indent:0;text-transform:none;block-progression:tb;fill:#ff0000"
             id="path3006" />
          <path
             inkscape:connector-curvature="0"
             d="m -279.89,580.21 a 7.9059,7.9059 0 0 0 -0.75,0.0625 c -6.2183,1.029 -9.8246,5.9004 -11.625,9.0312 -1.8004,3.1309 -3.0704,5.3842 -3.125,5.4375 a 7.9059,7.9059 0 0 0 -1.2812,1.6562 c -13.503,22.911 -29.995,48.465 -30.688,78.875 a 7.9059,7.9059 0 0 0 0.0625,1.0625 c 2.8019,24.76 17.512,46.36 32.781,62.281 a 7.9059,7.9059 0 0 0 0.0313,0 c 16.116,16.785 26.804,34.858 21.219,54.938 a 7.9059,7.9059 0 0 0 -0.125,0.5625 c -3.8495,18.928 -10.959,37.502 -18.188,56.219 a 7.9059,7.9059 0 0 0 -0.3125,4.6562 c 1.0518,4.4319 4.0373,9.3865 9.2188,10.656 5.1815,1.2698 8.905,-1.0174 11.531,-3 4.9022,-3.7008 8.1035,-8.2427 10.062,-13.25 13.408,-22.747 29.605,-48.086 30.281,-78.219 a 7.9059,7.9059 0 0 0 -0.0625,-1.0938 c -2.8445,-24.587 -17.289,-46.232 -32.469,-62.219 -0.005,-0.005 0.005,-0.0258 0,-0.0313 l 0.0313,0 c -7.688,-8.1448 -14.54,-16.636 -18.656,-25.219 -4.1166,-8.5826 -5.6812,-16.95 -3.2812,-26.469 a 7.9059,7.9059 0 0 0 0.1562,-0.6562 c 3.2797,-20.042 11.079,-39.706 18.469,-59.812 a 7.9059,7.9059 0 0 0 0.5,-2.7188 c -0.008,-7.6695 -6.4772,-13.235 -13.781,-12.75 z"
             style="color:#000000;text-indent:0;text-transform:none;block-progression:tb;fill:#ff0000"
             id="path3009" />
          <path
             inkscape:connector-curvature="0"
             d="m -383.86,531.89 a 9.201,9.201 0 0 0 -0.87285,0.0727 c -7.2369,1.1976 -11.434,6.8669 -13.529,10.511 -2.0953,3.6438 -3.5734,6.2662 -3.6369,6.3282 a 9.201,9.201 0 0 0 -1.4911,1.9276 c -15.714,26.664 -34.908,56.404 -35.714,91.795 a 9.201,9.201 0 0 0 0.0727,1.2365 c 3.2608,28.815 20.38,53.954 38.151,72.483 a 9.201,9.201 0 0 0 0.0364,0 c 18.756,19.534 31.195,40.569 24.695,63.937 a 9.201,9.201 0 0 0 -0.14548,0.65464 c -4.48,22.029 -12.754,43.645 -21.167,65.428 a 9.201,9.201 0 0 0 -0.36369,5.419 c 1.2242,5.1578 4.6986,10.924 10.729,12.402 6.0302,1.4778 10.364,-1.1841 13.42,-3.4914 5.7052,-4.307 9.4309,-9.5929 11.711,-15.42 15.604,-26.473 34.455,-55.963 35.242,-91.031 a 9.201,9.201 0 0 0 -0.0727,-1.2729 c -3.3105,-28.615 -20.121,-53.805 -37.787,-72.411 -0.006,-0.006 0.006,-0.03 0,-0.0364 l 0.0364,0 c -8.9473,-9.4789 -16.921,-19.361 -21.712,-29.35 -4.7909,-9.9885 -6.6118,-19.727 -3.8187,-30.804 a 9.201,9.201 0 0 0 0.18179,-0.76369 c 3.8169,-23.325 12.894,-46.21 21.494,-69.61 a 9.201,9.201 0 0 0 0.5819,-3.1641 c -0.009,-8.9258 -7.5382,-15.403 -16.039,-14.839 z"
             style="color:#000000;text-indent:0;text-transform:none;block-progression:tb;fill:#ff0000"
             id="path3011" />
        </g>
      </g>
    </g>
  </g>
  <metadata
     id="metadata18525">
    <rdf:RDF>
      <cc:Work>
        <dc:format>image/svg+xml</dc:format>
        <dc:type
           rdf:resource="http://purl.org/dc/dcmitype/StillImage" />
        <cc:license
           rdf:resource="http://creativecommons.org/publicdomain/zero/1.0/" />
        <dc:publisher>
          <cc:Agent
             rdf:about="http://openclipart.org/">
            <dc:title>Openclipart</dc:title>
          </cc:Agent>
        </dc:publisher>
        <dc:title>Onsen</dc:title>
        <dc:date>2013-10-23T08:26:49</dc:date>
        <dc:description>Hot spring mark commonly used in Japan.</dc:description>
        <dc:source>https://openclipart.org/detail/185361/onsen-by-uroesch-185361</dc:source>
        <dc:creator>
          <cc:Agent>
            <dc:title>uroesch</dc:title>
          </cc:Agent>
        </dc:creator>
        <dc:subject>
          <rdf:Bag>
            <rdf:li>Hot Spring</rdf:li>
            <rdf:li>Japan</rdf:li>
            <rdf:li>Onsen</rdf:li>
          </rdf:Bag>
        </dc:subject>
      </cc:Work>
      <cc:License
         rdf:about="http://creativecommons.org/publicdomain/zero/1.0/">
        <cc:permits
           rdf:resource="http://creativecommons.org/ns#Reproduction" />
        <cc:permits
           rdf:resource="http://creativecommons.org/ns#Distribution" />
        <cc:permits
           rdf:resource="http://creativecommons.org/ns#DerivativeWorks" />
      </cc:License>
    </rdf:RDF>
  </metadata>
</svg>
