<svg xmlns="http://www.w3.org/2000/svg" xmlns:xlink="http://www.w3.org/1999/xlink" height="800" width="1200" viewBox="-24.53835 -42.8135 212.6657 256.881"><defs><linearGradient gradientUnits="userSpaceOnUse" xlink:href="#a" id="c" y2="131.853" x2="110.149" y1="77.07" x1="55.549"/><linearGradient id="a"><stop offset="0" stop-color="#387eb8"/><stop offset="1" stop-color="#366994"/></linearGradient><linearGradient gradientUnits="userSpaceOnUse" xlink:href="#b" id="d" y2="168.101" x2="147.777" y1="111.921" x1="89.137"/><linearGradient id="b"><stop offset="0" stop-color="#ffe052"/><stop offset="1" stop-color="#ffc331"/></linearGradient></defs><g color="#000"><path style="marker:none" d="M99.75 67.469c-28.032 0-26.281 12.156-26.281 12.156l.031 12.594h26.75V96H62.875s-17.938-2.034-17.938 26.25 15.657 27.281 15.657 27.281h9.343v-13.125s-.503-15.656 15.407-15.656h26.531s14.906.241 14.906-14.406V82.125s2.263-14.656-27.031-14.656zM85 75.938a4.808 4.808 0 014.813 4.812A4.808 4.808 0 0185 85.563a4.808 4.808 0 01-4.813-4.813A4.808 4.808 0 0185 75.937z" overflow="visible" fill="url(#c)" transform="translate(-55.728 -48.638) scale(1.24012)"/><path style="marker:none" d="M100.546 177.315c28.032 0 26.281-12.156 26.281-12.156l-.03-12.594h-26.75v-3.781h37.374s17.938 2.034 17.938-26.25c0-28.285-15.657-27.282-15.657-27.282h-9.343v13.125s.503 15.657-15.407 15.657h-26.53s-14.907-.241-14.907 14.406v24.219s-2.263 14.656 27.031 14.656zm14.75-8.469a4.808 4.808 0 01-4.812-4.812 4.808 4.808 0 014.812-4.813 4.808 4.808 0 014.813 4.813 4.808 4.808 0 01-4.813 4.812z" overflow="visible" fill="url(#d)" transform="translate(-55.728 -48.638) scale(1.24012)"/></g><path d="M108.397 66.784l-2.44-2.244.004-28.463c.004-28.098.013-28.488.71-30.351 1.491-3.985 3.733-5.34 9.374-5.67 3.384-.197 4.43-.056 25.536 3.424l22.008 3.63v23.507c0 18.111-.098 23.832-.429 24.921-.527 1.736-2.261 4.067-3.608 4.85-.667.387-8.756 1.882-24.187 4.47-12.751 2.138-23.486 3.95-23.856 4.028-.472.1-1.398-.526-3.112-2.102zm30.706-7.788c.758 0 .798-.109.798-2.184 0-1.942-.072-2.184-.656-2.184-1.245 0-2.302-.753-2.89-2.058-.325-.72-.53-1.356-.454-1.413.075-.058.85-.514 1.724-1.014 4.335-2.482 6.279-8.051 6.291-18.027.015-11.998-3.006-17.686-10.17-19.146-2.252-.46-4.806-.213-6.81.657-2.995 1.299-5.276 4.776-6.398 9.753-.798 3.54-.788 13.23.017 16.968 1.182 5.484 3.97 9.547 7.317 10.663 1.24.413 1.413.618 1.934 2.288.81 2.597 1.534 3.857 2.688 4.679 1.154.822 3.44 1.37 4.845 1.161a14.709 14.709 0 011.764-.143zm-7.596-12.534c-1.025-.51-2.255-2.297-2.683-3.896-1.4-5.23-1.283-18.176.198-21.878.673-1.68 2.225-3.02 3.501-3.02 1.412 0 3.188 1.703 3.848 3.69 1.167 3.512 1.363 15.304.338 20.26-.816 3.94-2.977 5.953-5.202 4.844zm22.506 2.438c3.18-.706 3.36-.862 3.36-2.903 0-1.585-.078-1.806-.588-1.655-2.015.599-2.485.603-3.121.026-.622-.562-.659-1.082-.659-9.28v-8.684h4.032V22.46l-2.016-.228-2.016-.228v-3.155c0-1.736-.113-3.225-.252-3.31-.138-.084-.996-.206-1.906-.271l-1.655-.119-.576 2.352a320.445 320.445 0 00-.788 3.276c-.181.791-.38.924-1.381.924h-1.17v4.368h2.016v9.758c0 11.922.134 12.38 3.864 13.2 1.073.237 1.262.228 2.856-.126z" fill="#7cc040"/><path d="M108.223 66.463L106.3 64.52V35.84c0-20.792.107-29.036.39-29.98.498-1.66 2.344-3.823 3.975-4.655.697-.356 2.306-.732 3.575-.836 1.707-.14 2.107-.1 1.536.15-1.662.73-3.116 2.179-4.008 3.994l-.932 1.898-.094 30.996c-.052 17.048-.208 30.996-.346 30.996-.14 0-1.118-.873-2.174-1.941zM132.1 58.93c-1.59-.422-3.35-2.35-4.113-4.503-.32-.906-.704-1.959-.85-2.34-.16-.414-.812-.854-1.624-1.098-3.004-.9-5.807-4.94-7.025-10.123-.875-3.722-.85-14.997.04-18.327 1.36-5.091 3.946-8.392 7.37-9.41 2.207-.654 3.555-.616 1.68.049-3.16 1.12-5.486 4.167-6.894 9.036-.703 2.433-.772 3.322-.75 9.733.022 6.091.122 7.408.734 9.628 1.377 5.001 3.45 7.875 6.754 9.368 1.517.686 1.78.954 2.1 2.148.766 2.842 2.287 4.906 4.262 5.783.725.321.772.401.236.395-.37-.004-1.234-.156-1.92-.339zm15.896-10.117c-2.649-.928-3.056-2.821-3.056-14.199 0-7.673-.054-8.508-.561-8.606-.391-.076-.686-.72-.97-2.125-.224-1.108-.34-2.129-.258-2.268.082-.138.518-.252.969-.252.791 0 .82.083.82 2.352v2.352h1.979l.103 9.828c.113 10.91.199 11.364 2.386 12.698.84.512.928.652.404.638-.37-.01-1.187-.198-1.816-.418zm-15.4-3.174c1.895-1.978 2.6-5.705 2.6-13.742 0-7.695-.917-12.078-2.804-13.4-.686-.48-.676-.494.332-.494 3.44 0 4.722 4.756 4.394 16.296-.182 6.417-.603 8.949-1.789 10.759-.545.832-1.842 1.505-2.9 1.505-.694 0-.688-.031.166-.924zm21.92-1.428c.37-.158 1.126-.288 1.68-.288.86 0 .91.042.336.288-.37.16-1.125.29-1.68.29-.86 0-.909-.043-.336-.29zm-8.804-23.268c1.469-6.425 1.287-5.964 2.353-5.964.852 0 .96.101.79.745-.106.41-.448 1.921-.759 3.36-.55 2.548-.59 2.615-1.56 2.615-.86 0-.973-.103-.824-.756z" fill="#016123"/></svg>